<svg version="1.2" baseProfile="tiny-ps" xmlns="http://www.w3.org/2000/svg" viewBox="0 0 800 1600" width="800" height="1600">
	<title>Confetti-Doodles-svg</title>
	<style>
		tspan { white-space:pre }
		.shp0 { fill: #48426d } 
		.shp1 { fill: #f1aa9b } 
		.shp2 { fill: #f0c38e } 
		.shp3 { fill: #ffffff } 
	</style>
	<path id="Layer" class="shp0" d="M800 0L800 1600L0 1600L0 0L800 0Z" />
	<path id="Layer" fill-rule="evenodd" class="shp1" d="M48.2 1123.5C48.9 1124.2 72 1128.6 72.7 1128.1C73.8 1127.3 66.4 1105 65.2 1102.5C60.5 1107.5 47.9 1123.3 48.2 1123.5ZM570.9 1226.3C571 1226.3 580.3 1221.4 585.1 1219.3C585.4 1219.2 586.2 1219 586.7 1218.9C587.1 1218.8 587.4 1218.6 587.6 1218.3C587.8 1218 587.7 1217.7 587.5 1217.5L575.2 1204.4C575 1204.2 574.7 1204.1 574.4 1204C574.1 1204 573.7 1204 573.4 1204.2C573.3 1204.3 570.9 1205.6 569.8 1206.3C566.1 1208.7 557.7 1212.8 557.6 1212.8C557.3 1213 557.1 1213.2 557 1213.5C557 1213.8 557.1 1214 557.3 1214.2C557.3 1214.2 559.8 1216 560.9 1216.9C562.5 1218.4 564.1 1219.9 565.6 1221.5C566.8 1222.7 567 1223.1 567.2 1223.6C567.5 1224.1 567.7 1224.7 569.1 1226.1C569.6 1226.5 570.4 1226.6 570.9 1226.3ZM29.7 33C30.4 33 30.9 32.5 30.9 31.8C30.9 31.7 30.9 31.5 30.8 31.4C30.6 29.8 30.7 17.1 30.8 9.2C30.8 8.9 30.7 8.6 30.4 8.3C30.2 8.1 29.9 7.9 29.5 7.9C29.3 7.9 24.6 7.9 23.6 8L10 8.4C9.7 8.4 9.4 8.6 9.1 8.8C8.9 9 8.8 9.3 8.8 9.6L8.8 9.7C9.5 17 9.7 24.4 9.4 31.7C9.4 32 9.5 32.4 9.7 32.6C9.9 32.8 10.3 33 10.6 33C16.7 32.9 23.8 32.9 29.7 33Z" />
	<path id="Layer" fill-rule="evenodd" class="shp2" d="M416.1 198.2C417 198.2 437.9 187.5 438.2 186.7C438.6 185.4 419.1 172.4 416.6 171.1C416 177.9 415.8 198.1 416.1 198.2ZM88.2 596.4C88.3 596.3 96.4 589.7 100.7 586.7C101 586.5 101.7 586.2 102.2 586C102.6 585.8 102.9 585.6 103 585.3C103.1 585 103 584.7 102.7 584.5L88 574C87.8 573.8 87.5 573.8 87.1 573.8C86.8 573.8 86.4 574 86.2 574.2C86.1 574.3 84 576 83.1 577C80 580.1 72.6 585.8 72.5 585.9C72.2 586.1 72.1 586.4 72.1 586.7C72.1 587 72.3 587.2 72.6 587.3C72.6 587.3 75.4 588.5 76.7 589.3C78.6 590.4 80.4 591.6 82.2 592.8C83.6 593.7 83.9 594.1 84.2 594.5C84.6 595 84.9 595.5 86.6 596.6C86.9 596.9 87.7 596.8 88.2 596.4ZM620.1 727.5C619.9 728.1 620.3 728.8 620.9 728.9C621 728.9 621.1 728.9 621.3 728.9C622.7 729.1 633.9 731.7 640.8 733.4C641.1 733.5 641.4 733.4 641.6 733.2C641.9 733 642 732.7 642.1 732.4C642.1 732.2 643.2 727.7 643.4 726.7L646.1 713.3C646.2 713 646.1 712.6 645.9 712.4C645.7 712.2 645.5 712 645.3 711.9L645.2 711.9C638.7 711.1 632.1 709.7 625.8 708C625.5 707.9 625.2 708 624.9 708.2C624.6 708.4 624.5 708.7 624.4 709C623.1 714.8 621.5 721.7 620.1 727.5ZM621.9 728.5C622 728.4 622.1 728.3 622.1 728.1C622.1 728.3 622 728.4 621.9 728.5Z" />
	<g id="Layer" style="opacity: 0.4">
		<path id="Layer" class="shp3" d="M327.3 699.6C327.3 698.1 328.1 696.8 329.6 696.1C331.5 695.3 333.8 696.1 334.6 698C336.2 701.7 339.3 704.8 343.1 706.4C346.9 708 351.2 708.1 355 706.6C355.9 706.3 356.8 705.8 357.8 705.4C359.5 704.6 361.5 703.6 363.7 703.1C367.8 702.2 372.3 702.9 376.5 705.1C379.6 706.8 382.6 709.2 385.6 712.7C387 714.3 386.8 716.7 385.2 718C383.6 719.4 381.2 719.2 379.9 717.6C377.4 714.8 375.2 712.9 372.9 711.7C370.3 710.3 367.6 709.8 365.3 710.4C363.9 710.7 362.5 711.4 361 712.1C359.9 712.6 358.8 713.1 357.7 713.6C352.1 715.7 345.7 715.6 340.1 713.3C334.6 711 330 706.5 327.6 701C327.4 700.6 327.3 700.1 327.3 699.6ZM378.6 740.4C378.8 741.9 378.1 743.4 376.7 744.2C374.9 745.3 372.5 744.6 371.4 742.8C369.3 739.1 365.8 736.4 361.9 735.2C357.9 734 353.5 734.4 349.8 736.3C348.9 736.7 348.1 737.3 347.1 737.9C345.4 738.9 343.6 740.1 341.4 740.9C337.4 742.3 332.7 742.1 328.2 740.3C324.8 738.9 321.6 736.8 318.1 733.5C316.5 732 316.4 729.6 317.9 728C319.3 726.4 321.8 726.3 323.3 727.8C326.1 730.4 328.6 732.1 331 733.1C333.8 734.2 336.6 734.4 338.9 733.6C340.2 733.1 341.6 732.3 343 731.4C344 730.8 345.1 730.1 346.2 729.5C351.6 726.7 358.1 726.1 364 727.8C369.9 729.6 375 733.6 378 739C378.4 739.4 378.6 739.9 378.6 740.4ZM209.1 261.3C202.3 267 193.4 270.3 186.7 270.7C179.4 271.2 170.3 268.3 166.3 260.5C164.8 257.5 164.1 253.8 164.1 249.3C164.2 241.4 167 236.4 172.5 233.9C177.2 231.8 183.9 231.6 188.4 235.7C191.9 238.9 192.5 243.5 190 246.9C189.1 248.1 187.3 248.4 186.1 247.5C184.9 246.6 184.6 244.8 185.5 243.6C186.8 241.8 184.9 240 184.7 239.8C182.1 237.4 177.7 237.7 174.8 239C171.4 240.5 169.8 243.7 169.7 249.4C169.7 253 170.2 255.8 171.3 258C173.7 262.7 179.9 265.7 186.3 265.2C193.6 264.7 204.5 259.9 210.2 252.2C213.3 248 214.3 243.7 213.3 239.3C212.6 236.2 210.9 233.1 208.3 229.6C203.2 223 196.5 217.9 189.3 215.4C181.6 212.7 173.5 213.3 165.4 217.3C164 218 162.3 217.4 161.7 216C161 214.6 161.6 212.9 163 212.3C172.4 207.7 182.2 206.9 191.2 210.1C199.4 213 207.1 218.7 212.8 226.2C215.9 230.3 217.9 234.2 218.8 238C220.2 244 218.8 250 214.8 255.5C213.1 257.6 211.2 259.6 209.1 261.3Z" />
		<path id="Layer" class="shp3" d="M639 1013.7C639 1009.77 642.17 1006.6 646.1 1006.6C650.03 1006.6 653.2 1009.77 653.2 1013.7C653.2 1017.63 650.03 1020.8 646.1 1020.8C642.17 1020.8 639 1017.63 639 1013.7Z" />
		<path id="Layer" class="shp3" d="M660.8 1024.3C660.8 1020.37 663.97 1017.2 667.9 1017.2C671.83 1017.2 675 1020.37 675 1024.3C675 1028.23 671.83 1031.4 667.9 1031.4C663.97 1031.4 660.8 1028.23 660.8 1024.3Z" />
		<path id="Layer" class="shp3" d="M644 1037.3C644 1033.37 647.17 1030.2 651.1 1030.2C655.03 1030.2 658.2 1033.37 658.2 1037.3C658.2 1041.23 655.03 1044.4 651.1 1044.4C647.17 1044.4 644 1041.23 644 1037.3Z" />
		<path id="Layer" fill-rule="evenodd" class="shp3" d="M497.6 1508.3C496.3 1506.8 496.4 1504.5 497.8 1503.1C497.9 1503 497.9 1503 498 1502.9C503.3 1498.1 508.6 1493.2 513.9 1488.3C512.8 1487.1 511.7 1486 510.6 1484.8C506.8 1480.8 502.9 1476.6 498.9 1472.7C497.4 1471.3 497.4 1468.9 498.8 1467.4C500.3 1466 502.6 1466 504.1 1467.4C508.3 1471.4 512.3 1475.7 516.1 1479.8C517.1 1481 518.2 1482.2 519.3 1483.3C524.3 1478.5 529.3 1473.7 534.1 1468.8C535.5 1467.3 537.9 1467.3 539.4 1468.8C540.9 1470.2 540.9 1472.6 539.4 1474.1C534.5 1479.1 529.5 1484 524.5 1488.8C529.8 1494.2 535.2 1499.1 541.4 1503.3C543.1 1504.4 543.6 1506.8 542.4 1508.5C541.3 1510.2 538.9 1510.7 537.2 1509.5C530.5 1505 524.6 1499.5 519 1493.9C513.6 1499 508.2 1503.9 502.8 1508.7C501.2 1510.1 498.8 1510 497.6 1508.3ZM551.4 327.6L554 327.2C565.1 325.7 577.2 325 591 324.9C596.5 324.9 602.5 324.9 609.5 325.1C610.2 325.1 611 325.1 611.8 325.1C616.8 325.1 623 325.1 625.3 329C626.6 331.2 626.3 334.1 624.4 337.5C621.3 343.2 615.7 350.7 609.5 355C601.7 360.5 592.6 362.3 583.8 360C571.5 356.8 552.8 345 551.7 330L551.4 327.6ZM620.8 332.1C620.8 331.9 620.8 331.8 620.7 331.7C620.6 331.6 620.2 331 618 330.6C616.1 330.3 613.8 330.3 611.7 330.3C610.9 330.3 610 330.3 609.3 330.3C602.4 330.1 596.5 330.1 591 330.1C578.5 330.2 567.5 330.8 557.3 332.1C560 343.1 575.4 352.5 585.1 355.1C592.3 357 599.9 355.5 606.4 350.9C611.9 347 617 340 619.7 335C620.5 333.6 620.8 332.6 620.8 332.1ZM739.2 516.3C739.2 516.2 739.2 516.1 739.3 515.9C740 513.5 740.2 511.9 740 509.2C740 508.5 740.5 507.9 741.2 507.8C741.9 507.8 742.5 508.3 742.6 509C742.8 512.1 742.6 513.9 741.8 516.6C741.6 517.3 740.9 517.7 740.2 517.5C739.6 517.3 739.2 516.8 739.2 516.3ZM729.5 506.1C729.5 505.6 729.8 505.1 730.3 504.9C732.4 504.1 734.6 503.7 736.9 503.6C737.6 503.6 738.2 504.1 738.2 504.8C738.2 505.5 737.7 506.1 737 506.1C735 506.2 733.1 506.6 731.2 507.2C730.5 507.4 729.8 507.1 729.6 506.4C729.5 506.4 729.5 506.2 729.5 506.1ZM735.6 494.1C735.6 493.7 735.8 493.3 736.1 493.1C736.7 492.7 737.5 492.8 737.9 493.3C739.3 495.1 740.5 497 741.5 499.1C741.8 499.7 741.5 500.5 740.9 500.8C740.3 501.1 739.5 500.8 739.2 500.2C738.3 498.3 737.2 496.5 735.9 494.9C735.7 494.7 735.6 494.4 735.6 494.1ZM744.7 500.5C744.7 500 745 499.6 745.4 499.3C746.4 498.8 747.3 498.1 748.8 496.9C749.2 496.6 749.7 496.2 750.2 495.8C750.8 495.4 751.6 495.5 752 496C752.4 496.6 752.3 497.4 751.8 497.8C751.3 498.2 750.8 498.6 750.4 498.9C748.8 500.2 747.8 501 746.5 501.6C745.9 501.9 745.1 501.6 744.8 501C744.7 500.9 744.7 500.7 744.7 500.5ZM745 506.7C745 506.4 745.1 506.2 745.2 505.9C745.6 505.3 746.4 505.2 747 505.6C748.7 506.8 750.4 507.9 752.2 508.9C752.8 509.2 753.1 510 752.7 510.6C752.4 511.2 751.6 511.5 751 511.1C749.1 510.1 747.2 508.9 745.4 507.6C745.2 507.4 745 507.1 745 506.7ZM417.2 1029.3C417.2 1029.2 417.2 1029.1 417.3 1028.9C418 1026.5 418.2 1024.9 418 1022.2C418 1021.5 418.5 1020.9 419.2 1020.8C419.9 1020.8 420.5 1021.3 420.6 1022C420.8 1025.1 420.6 1026.9 419.8 1029.6C419.6 1030.3 418.9 1030.7 418.2 1030.5C417.6 1030.3 417.2 1029.8 417.2 1029.3ZM407.5 1019.1C407.5 1018.6 407.8 1018.1 408.3 1017.9C410.4 1017.1 412.6 1016.7 414.9 1016.6C415.6 1016.6 416.2 1017.1 416.2 1017.8C416.2 1018.5 415.7 1019.1 415 1019.1C413 1019.2 411.1 1019.6 409.2 1020.2C408.5 1020.4 407.8 1020.1 407.6 1019.4C407.5 1019.4 407.5 1019.2 407.5 1019.1ZM413.6 1007.1C413.6 1006.7 413.8 1006.3 414.1 1006.1C414.7 1005.7 415.5 1005.8 415.9 1006.3C417.3 1008.1 418.5 1010 419.5 1012.1C419.8 1012.7 419.5 1013.5 418.9 1013.8C418.3 1014.1 417.5 1013.8 417.2 1013.2C416.3 1011.3 415.2 1009.5 413.9 1007.9C413.7 1007.7 413.6 1007.4 413.6 1007.1ZM422.7 1013.5C422.7 1013 423 1012.6 423.4 1012.3C424.4 1011.8 425.3 1011.1 426.8 1009.9C427.2 1009.6 427.7 1009.2 428.2 1008.8C428.8 1008.4 429.6 1008.5 430 1009C430.4 1009.6 430.3 1010.4 429.8 1010.8C429.3 1011.2 428.8 1011.6 428.4 1011.9C426.8 1013.2 425.8 1014 424.5 1014.6C423.9 1014.9 423.1 1014.6 422.8 1014C422.7 1013.9 422.7 1013.7 422.7 1013.5ZM423 1019.7C423 1019.4 423.1 1019.2 423.2 1018.9C423.6 1018.3 424.4 1018.2 425 1018.6C426.7 1019.8 428.4 1020.9 430.2 1021.9C430.8 1022.2 431.1 1023 430.7 1023.6C430.4 1024.2 429.6 1024.5 429 1024.1C427.1 1023.1 425.2 1021.9 423.4 1020.6C423.2 1020.4 423 1020.1 423 1019.7ZM226.6 1329.7C226.6 1328.3 226.8 1326.8 227.3 1325.2C230 1316.8 240 1308.6 247.3 1306.5C248.7 1306.1 250.2 1305.8 251.7 1305.6C248.4 1297.5 241.1 1290.1 230.7 1290.2C229.2 1290.2 228 1289 227.9 1287.5C227.9 1286 229.1 1284.8 230.6 1284.8C237.3 1284.7 243.5 1287.2 248.6 1291.8C252.6 1295.4 255.7 1300.2 257.4 1305.5C263.9 1306 270.3 1308.6 274.8 1312.9C282.2 1319.9 283.7 1331.1 284.9 1340.2L285 1340.9C285.2 1342.4 284.1 1343.8 282.7 1344C281.2 1344.2 279.8 1343.1 279.6 1341.7L279.5 1341C278.3 1332.4 277 1322.6 271.1 1317C267.9 1314 263.4 1312 258.7 1311.3C259.7 1319.2 257.4 1329 253 1335.6C250.1 1339.9 245.2 1342.7 240.3 1342.8C236 1343 232 1341.1 229.2 1337.6C227.6 1335.2 226.6 1332.6 226.6 1329.7ZM253.3 1311C251.8 1311.1 250.3 1311.4 248.9 1311.8C243.1 1313.5 234.7 1320.5 232.6 1326.9C231.7 1329.7 232.1 1332 233.7 1334.1C235.8 1336.8 238.5 1337.3 240.3 1337.2C243.5 1337.1 246.7 1335.2 248.6 1332.4C252.5 1326.7 254.4 1317.7 253.3 1311Z" />
	</g>
</svg>