<svg id="Capa_1" enable-background="new 0 0 512 512" height="512" viewBox="0 0 512 512" width="512" xmlns="http://www.w3.org/2000/svg"><g><g><path d="m385.656 71.57h-230.906c-57.594 0-83.988 43.257-84.267 83.693-.309 2.358-.486 4.757-.486 7.197v294.515c0 30.341 24.684 55.026 55.026 55.026h246.36c16.981 0 31.16-12.192 34.262-28.282h.323c19.514 0 35.39-15.876 35.39-35.391v-321.056c0-30.714-24.988-55.702-55.702-55.702zm-27.347 36.38c-3.326 0-6.021 2.696-6.021 6.021v79.662c0 1.16-.744 1.712-1.188 1.938-.444.224-1.329.502-2.267-.178l-21.907-15.921c-2.111-1.534-4.968-1.534-7.079 0l-21.907 15.921c-.938.68-1.823.403-2.267.178-.444-.226-1.188-.778-1.188-1.938v-79.662c0-8.214 6.683-14.896 14.897-14.896h43.931c6.072 0 11.308 3.652 13.625 8.875zm-203.559-16.311h139.583c-5.427 3.669-9.448 9.264-11.083 15.795h-158.228c-6.195 0-12.147 1.045-17.709 2.941 9.924-10.855 25.055-18.736 47.437-18.736zm-64.684 365.335v-294.515c0-19.275 15.681-34.956 34.956-34.956h1.776v364.428h-1.776c-19.275 0-34.956-15.681-34.956-34.957zm296.147 20.126c0 8.178-6.653 14.83-14.83 14.83h-232.544v-364.427h143.604v66.13c0 5.374 2.975 10.229 7.764 12.668 2.05 1.045 4.262 1.56 6.464 1.56 2.941 0 5.862-.92 8.348-2.727l18.367-13.349 18.367 13.349c4.347 3.16 10.024 3.608 14.811 1.167 4.789-2.439 7.764-7.294 7.764-12.668v-66.13h7.053c8.178 0 14.83 6.653 14.83 14.83v334.767zm35.075-28.773c0 8.342-6.704 15.136-15.006 15.306v-321.3c0-16.384-11.353-30.151-26.602-33.884-1.457-6.965-5.611-12.952-11.317-16.81h17.293c19.648 0 35.633 15.985 35.633 35.633v321.055z"/><path d="m176.071 334.618c2.426 0 4.713-1.478 5.627-3.88l4.925-12.931h32.99l4.873 12.914c1.175 3.112 4.647 4.683 7.759 3.507 3.111-1.174 4.681-4.648 3.507-7.758l-25.472-67.495c-.021-.056-.043-.111-.065-.165-1.173-2.851-3.921-4.692-7.003-4.692-.002 0-.005 0-.007 0-3.085.003-5.833 1.85-7.001 4.705-.019.046-.037.091-.054.137l-25.706 67.492c-1.184 3.107.376 6.586 3.483 7.77.708.269 1.432.396 2.144.396zm27.123-60.319 11.875 31.467h-23.86z"/><path d="m346.221 322.575h-34.559l38.54-59.149c1.206-1.851 1.302-4.214.249-6.156-1.052-1.941-3.084-3.152-5.293-3.152h-43.201c-3.325 0-6.021 2.696-6.021 6.021s2.696 6.021 6.021 6.021h32.092l-38.54 59.149c-1.206 1.851-1.302 4.214-.249 6.156 1.052 1.941 3.084 3.151 5.293 3.151h45.668c3.325 0 6.021-2.696 6.021-6.021-.001-3.324-2.696-6.02-6.021-6.02z"/><path d="m244.618 300.388h41.437c3.325 0 6.021-2.696 6.021-6.021s-2.696-6.021-6.021-6.021h-41.437c-3.325 0-6.021 2.696-6.021 6.021s2.696 6.021 6.021 6.021z"/><path d="m329.32 375.838h-136.347c-10.553 0-19.139 8.586-19.139 19.139v45.464c0 10.553 8.586 19.139 19.139 19.139h136.347c10.553 0 19.139-8.586 19.139-19.139v-45.464c-.001-10.552-8.586-19.139-19.139-19.139zm7.097 64.604c0 3.914-3.184 7.098-7.097 7.098h-136.347c-3.913 0-7.097-3.184-7.097-7.098v-45.464c0-3.914 3.184-7.098 7.097-7.098h136.347c3.913 0 7.097 3.184 7.097 7.098z"/><path d="m306.026 411.689h-89.759c-3.325 0-6.021 2.696-6.021 6.021s2.696 6.021 6.021 6.021h89.759c3.325 0 6.021-2.696 6.021-6.021 0-3.326-2.696-6.021-6.021-6.021z"/><path d="m238.144 167.717c-.074 0-.148-.001-.222-.002-12.84-.278-25.535-.324-37.731-.133-5.514.074-10.104-4.336-10.19-9.877-.086-5.542 4.336-10.104 9.877-10.19 12.446-.192 25.39-.148 38.478.135 5.541.12 9.935 4.71 9.815 10.25-.118 5.466-4.587 9.817-10.027 9.817z"/><path d="m167.173 167.717h-5.212c-5.542 0-10.035-4.493-10.035-10.035 0-5.541 4.493-10.035 10.035-10.035h5.212c5.542 0 10.035 4.493 10.035 10.035s-4.493 10.035-10.035 10.035z"/></g><g><path d="m413.168 31.23c0 10.279-8.332 18.611-18.611 18.611s-18.611-8.332-18.611-18.611 8.332-18.611 18.611-18.611c10.279-.001 18.611 8.332 18.611 18.611z"/><ellipse cx="17.597" cy="105.249" rx="7.881" ry="7.882" transform="matrix(.925 -.381 .381 .925 -38.758 14.634)"/><path d="m477.011 52.259 6.323 17.778c.27.761.806 1.364 1.483 1.669l15.795 7.116c2.231 1.005 2.231 4.561 0 5.566l-15.795 7.116c-.676.305-1.212.908-1.483 1.669l-6.323 17.778c-.893 2.512-4.052 2.512-4.945 0l-6.323-17.778c-.271-.761-.807-1.364-1.483-1.669l-15.795-7.116c-2.231-1.005-2.231-4.561 0-5.566l15.795-7.116c.676-.305 1.212-.908 1.483-1.669l6.323-17.778c.893-2.512 4.052-2.512 4.945 0z"/><path d="m51.239 2.539 8.688 23.966c.372 1.026 1.108 1.839 2.038 2.25l21.703 9.593c3.066 1.355 3.066 6.148 0 7.504l-21.703 9.593c-.929.411-1.666 1.224-2.038 2.25l-8.688 23.966c-1.227 3.386-5.568 3.386-6.795 0l-8.688-23.966c-.372-1.026-1.108-1.839-2.038-2.25l-21.703-9.593c-3.066-1.355-3.066-6.148 0-7.504l21.703-9.593c.929-.411 1.666-1.224 2.038-2.25l8.688-23.966c1.227-3.385 5.568-3.385 6.795 0z"/></g></g></svg>