<?xml version="1.0" standalone="no"?>
<!DOCTYPE svg PUBLIC "-//W3C//DTD SVG 20010904//EN"
 "http://www.w3.org/TR/2001/REC-SVG-20010904/DTD/svg10.dtd">
<svg version="1.0" xmlns="http://www.w3.org/2000/svg"
 width="200.000000pt" height="200.000000pt" viewBox="0 0 200.000000 200.000000"
 preserveAspectRatio="xMidYMid meet">

<g transform="translate(0.000000,200.000000) scale(0.100000,-0.100000)"
fill="#000000" stroke="none">
<path d="M960 1755 l0 -115 35 0 35 0 0 115 0 115 -35 0 -35 0 0 -115z"/>
<path d="M640 1808 c-13 -5 -26 -10 -27 -12 -5 -4 44 -130 67 -177 15 -29 24
-37 38 -32 40 14 41 22 6 106 -18 45 -34 87 -34 93 0 22 -24 32 -50 22z"/>
<path d="M1326 1778 c-8 -18 -28 -65 -45 -105 -17 -40 -31 -74 -31 -76 0 -3
14 -10 31 -16 l30 -10 40 86 c55 120 57 130 24 143 -35 13 -33 14 -49 -22z"/>
<path d="M322 1602 c-12 -11 -22 -23 -22 -28 0 -13 143 -154 156 -154 6 0 19
9 29 20 19 21 18 22 -61 101 l-80 80 -22 -19z"/>
<path d="M1567 1542 c-42 -42 -77 -82 -77 -88 0 -6 9 -19 20 -29 20 -19 22
-18 100 60 44 44 80 84 80 89 0 6 -38 46 -44 46 -1 0 -36 -35 -79 -78z"/>
<path d="M820 1470 c0 -19 -7 -20 -105 -20 l-105 0 0 -95 0 -95 -55 0 -55 0 0
-259 c0 -306 6 -338 80 -412 26 -26 63 -52 83 -60 l37 -13 0 -177 c0 -98 3
-184 6 -193 5 -14 40 -16 289 -16 249 0 284 2 289 16 3 9 6 98 6 200 l0 183
28 15 c37 20 76 63 103 116 19 35 24 65 27 142 4 88 6 98 23 98 18 0 19 12 19
235 l0 235 -90 0 -90 0 0 40 0 40 -100 0 c-93 0 -100 1 -100 20 0 19 -7 20
-145 20 -138 0 -145 -1 -145 -20z m220 -275 l0 -225 -75 0 c-59 0 -75 3 -75
15 0 11 16 15 68 17 l67 3 0 125 0 125 -67 3 -68 3 0 79 0 80 75 0 75 0 0
-225z m-220 125 l0 -60 -70 0 -70 0 0 60 0 60 70 0 70 0 0 -60z m420 -145 l0
-205 -65 0 -65 0 0 205 0 205 65 0 65 0 0 -205z m180 -40 l0 -165 -55 0 -55 0
0 165 0 165 55 0 55 0 0 -165z m-460 -5 l0 -59 -112 -3 -113 -3 -3 -77 c-2
-45 -7 -78 -13 -78 -6 0 -9 -15 -7 -32 3 -33 4 -33 67 -41 119 -15 190 -58
216 -134 11 -32 18 -38 45 -41 l33 -3 -5 43 c-3 24 -7 50 -9 58 -4 13 37 25
134 39 4 1 7 15 7 31 0 29 -1 30 -48 30 -27 0 -72 -7 -101 -16 -40 -12 -56
-12 -66 -4 -8 7 -40 23 -72 36 l-58 24 263 0 262 0 0 -72 c0 -100 -14 -143
-63 -192 -31 -30 -57 -46 -97 -57 -51 -13 -55 -16 -55 -44 0 -25 4 -30 28 -33
l27 -3 0 -155 0 -154 -225 0 -225 0 0 155 0 155 25 0 c22 0 25 4 25 34 0 33
-1 34 -53 40 -69 9 -124 41 -162 94 l-30 44 -3 239 -3 239 195 0 196 0 0 -60z
m-143 -207 c-2 -16 -4 -3 -4 27 0 30 2 43 4 28 2 -16 2 -40 0 -55z"/>
<path d="M614 906 c-3 -8 -4 -25 -2 -38 2 -18 9 -23 33 -23 28 0 30 3 30 35 0
31 -3 35 -28 38 -17 2 -29 -2 -33 -12z"/>
<path d="M1062 538 c3 -29 7 -33 36 -36 31 -3 32 -2 32 32 0 35 -1 36 -36 36
-34 0 -35 -1 -32 -32z"/>
<path d="M967 403 c-4 -3 -7 -37 -7 -75 l0 -68 30 0 30 0 0 75 c0 72 -1 75
-23 75 -13 0 -27 -3 -30 -7z"/>
<path d="M120 1311 c-20 -38 -11 -48 91 -91 98 -42 102 -43 116 -24 7 10 12
25 11 33 -2 12 -175 98 -200 100 -4 1 -12 -8 -18 -18z"/>
<path d="M1752 1261 c-50 -21 -94 -40 -97 -43 -8 -7 16 -58 27 -58 14 0 192
70 202 80 14 14 -2 60 -22 59 -9 -1 -59 -18 -110 -38z"/>
<path d="M30 925 l0 -35 116 0 115 0 -3 33 -3 32 -112 3 -113 3 0 -36z"/>
<path d="M1727 953 c-4 -3 -7 -19 -7 -35 l0 -28 120 0 120 0 0 35 0 35 -113 0
c-63 0 -117 -3 -120 -7z"/>
<path d="M192 642 c-92 -36 -93 -37 -88 -66 4 -16 8 -32 11 -34 5 -6 194 66
208 78 14 12 -4 60 -22 59 -9 0 -58 -17 -109 -37z"/>
<path d="M1651 651 c-6 -11 -11 -26 -11 -33 0 -14 185 -98 215 -98 17 0 32 48
19 59 -7 6 -142 65 -198 87 -8 3 -19 -3 -25 -15z"/>
</g>
</svg>
